<svg aria-hidden="true" style="position: absolute; width: 0; height: 0; overflow: hidden;" version="1.1" xmlns="http://www.w3.org/2000/svg" xmlns:xlink="http://www.w3.org/1999/xlink">
<defs>
<symbol id="exit" viewBox="0 0 32 32">
<path fill="#858598" style="fill: var(--color1, #858598)" d="M22.625 24.5v2.5c0 2.757-2.243 5-5 5h-12.563c-2.757 0-5-2.243-5-5v-22c0-2.757 2.243-5 5-5h12.563c2.757 0 5 2.243 5 5v2.5c0 0.69-0.56 1.25-1.25 1.25s-1.25-0.56-1.25-1.25v-2.5c0-1.378-1.122-2.5-2.5-2.5h-12.563c-1.378 0-2.5 1.122-2.5 2.5v22c0 1.378 1.122 2.5 2.5 2.5h12.563c1.378 0 2.5-1.122 2.5-2.5v-2.5c0-0.69 0.56-1.25 1.25-1.25s1.25 0.56 1.25 1.25zM31.147 13.853l-2.799-2.799c-0.488-0.488-1.28-0.488-1.768 0s-0.488 1.28 0 1.768l1.991 1.991h-15.009c-0.69 0-1.25 0.56-1.25 1.25s0.56 1.25 1.25 1.25h15.009l-1.991 1.991c-0.488 0.488-0.488 1.28 0 1.768 0.244 0.244 0.564 0.366 0.884 0.366s0.64-0.122 0.884-0.366l2.799-2.799c1.219-1.218 1.219-3.201 0-4.419z"></path>
</symbol>
</defs>
</svg>
